<svg width="20" height="21" viewBox="0 0 20 21" fill="none" xmlns="http://www.w3.org/2000/svg">
<path d="M17.7087 4.8125C17.5429 4.8125 17.3839 4.74336 17.2667 4.62029C17.1495 4.49722 17.0837 4.3303 17.0837 4.15625C17.0837 3.9822 17.1495 3.81528 17.2667 3.69221C17.3839 3.56914 17.5429 3.5 17.7087 3.5C17.8744 3.5 18.0334 3.56914 18.1506 3.69221C18.2678 3.81528 18.3337 3.9822 18.3337 4.15625C18.3337 4.3303 18.2678 4.49722 18.1506 4.62029C18.0334 4.74336 17.8744 4.8125 17.7087 4.8125ZM17.7087 4.8125V8.09375C17.7087 8.7045 17.7087 9.00987 17.637 9.2575C17.5575 9.53298 17.4146 9.78362 17.2208 9.98723C17.0271 10.1908 16.7885 10.3411 16.5262 10.4247C16.2895 10.5 15.9987 10.5 15.417 10.5M2.29199 16.1875C2.45775 16.1875 2.61672 16.2566 2.73393 16.3797C2.85114 16.5028 2.91699 16.6697 2.91699 16.8438C2.91699 17.0178 2.85114 17.1847 2.73393 17.3078C2.61672 17.4309 2.45775 17.5 2.29199 17.5C2.12623 17.5 1.96726 17.4309 1.85005 17.3078C1.73284 17.1847 1.66699 17.0178 1.66699 16.8438C1.66699 16.6697 1.73284 16.5028 1.85005 16.3797C1.96726 16.2566 2.12623 16.1875 2.29199 16.1875ZM2.29199 16.1875V12.9062C2.29199 12.2955 2.29199 11.9901 2.36366 11.7425C2.44312 11.467 2.58606 11.2164 2.77982 11.0128C2.97359 10.8092 3.21219 10.6589 3.47449 10.5753C3.71116 10.5 4.00199 10.5 4.58366 10.5M4.58366 2.40625C4.58366 2.5803 4.51781 2.74722 4.4006 2.87029C4.28339 2.99336 4.12442 3.0625 3.95866 3.0625C3.7929 3.0625 3.63393 2.99336 3.51672 2.87029C3.39951 2.74722 3.33366 2.5803 3.33366 2.40625C3.33366 2.2322 3.39951 2.06528 3.51672 1.94221C3.63393 1.81914 3.7929 1.75 3.95866 1.75C4.12442 1.75 4.28339 1.81914 4.4006 1.94221C4.51781 2.06528 4.58366 2.2322 4.58366 2.40625ZM4.58366 2.40625H7.70866C8.29033 2.40625 8.58116 2.40625 8.81699 2.4815C9.07935 2.56493 9.31806 2.71502 9.51197 2.91847C9.70588 3.12193 9.849 3.37246 9.92866 3.64788C10.0003 3.89638 10.0003 4.20175 10.0003 4.8125M15.417 18.5938C15.417 18.4197 15.4828 18.2528 15.6 18.1297C15.7173 18.0066 15.8762 17.9375 16.042 17.9375C16.2078 17.9375 16.3667 18.0066 16.4839 18.1297C16.6011 18.2528 16.667 18.4197 16.667 18.5938C16.667 18.7678 16.6011 18.9347 16.4839 19.0578C16.3667 19.1809 16.2078 19.25 16.042 19.25C15.8762 19.25 15.7173 19.1809 15.6 19.0578C15.4828 18.9347 15.417 18.7678 15.417 18.5938ZM15.417 18.5938H12.292C11.7103 18.5938 11.4195 18.5937 11.1837 18.5185C10.9213 18.4351 10.6826 18.285 10.4887 18.0815C10.2948 17.8781 10.1516 17.6275 10.072 17.3521C10.0003 17.1036 10.0003 16.7983 10.0003 16.1875" stroke="#321A3B" stroke-width="1.5" stroke-linecap="round" stroke-linejoin="round"/>
<path d="M4.62402 10.457C4.62402 7.77603 4.62402 6.43553 5.41736 5.60253C6.21069 4.76953 7.48736 4.76953 10.0407 4.76953C12.594 4.76953 13.8707 4.76953 14.664 5.60253C15.4574 6.43553 15.4574 7.77603 15.4574 10.457C15.4574 13.138 15.4574 14.4785 14.664 15.3115C13.8707 16.1445 12.594 16.1445 10.0407 16.1445C7.48736 16.1445 6.21069 16.1445 5.41736 15.3115C4.62402 14.4785 4.62402 13.138 4.62402 10.457Z" stroke="#321A3B" stroke-width="1.5" stroke-linecap="round" stroke-linejoin="round"/>
<path d="M10.4163 12.6876L9.19965 8.73177C9.15745 8.60694 9.07886 8.49925 8.97503 8.42401C8.87121 8.34877 8.74744 8.3098 8.62132 8.31265C8.49533 8.30998 8.37175 8.34904 8.26809 8.42427C8.16444 8.4995 8.08597 8.60708 8.04382 8.73177L6.82715 12.6876M12.4996 8.31265V12.6876M7.27465 11.3751H9.96798" stroke="#321A3B" stroke-width="1.5" stroke-linecap="round" stroke-linejoin="round"/>
</svg>
