<svg width="87" height="87" viewBox="0 0 87 87" fill="none" xmlns="http://www.w3.org/2000/svg">
<g clip-path="url(#clip0_116_67)">
<path d="M66.5924 58.623C66.7453 58.8949 67.0342 59.0479 67.3231 59.0479C67.476 59.0479 67.6119 58.9969 67.7479 58.9289L68.4785 58.5041C68.7334 58.3512 68.9033 58.0793 68.9033 57.7734V56.9238C68.9033 56.465 68.5295 56.0742 68.0537 56.0742C67.5779 56.0742 67.2041 56.448 67.2041 56.9238V57.2807L66.8982 57.4676C66.5074 57.6885 66.3545 58.2152 66.5924 58.623ZM60.0844 61.3758L58.725 62.1574C58.3342 62.3783 58.1812 62.9051 58.4191 63.3129C58.5721 63.5848 58.8609 63.7377 59.1498 63.7377C59.2857 63.7377 59.4387 63.6867 59.5746 63.6187L60.934 62.8371C61.3248 62.6162 61.4607 62.0725 61.2398 61.6816C61.0189 61.2908 60.4922 61.1379 60.0844 61.3758ZM63.2449 61.3928C63.3809 61.3928 63.5338 61.3418 63.6697 61.2738L65.0291 60.4922C65.4199 60.2713 65.5729 59.7445 65.335 59.3367C65.1141 58.9459 64.5873 58.793 64.1795 59.0309L62.8201 59.8125C62.4293 60.0334 62.2764 60.5602 62.5143 60.968C62.6672 61.2398 62.9561 61.3928 63.2449 61.3928ZM47.816 68.4105L46.4566 69.1922C46.0658 69.4131 45.9129 69.9398 46.1508 70.3477C46.3037 70.6195 46.5926 70.7725 46.8814 70.7725C47.0344 70.7725 47.1703 70.7385 47.3062 70.6535L48.6656 69.8719C49.0564 69.651 49.2094 69.1242 48.9715 68.7164C48.7506 68.3256 48.2238 68.1727 47.816 68.4105ZM51.9111 66.0656L50.5518 66.8473C50.1609 67.0682 50.008 67.5949 50.2459 68.0027C50.3988 68.2746 50.6877 68.4275 50.9766 68.4275C51.1125 68.4275 51.2654 68.3936 51.4014 68.3086L52.7607 67.527C53.1516 67.3061 53.2875 66.7623 53.0666 66.3715C52.8457 65.9807 52.3189 65.8277 51.9111 66.0656ZM43.7379 70.7555L43.432 70.9424L43.1262 70.7555C42.7184 70.5176 42.2086 70.6535 41.9707 71.0613C41.7328 71.4691 41.8688 71.9789 42.2766 72.2168L43.0072 72.6416C43.1432 72.7266 43.2791 72.7606 43.432 72.7606C43.568 72.7606 43.7209 72.7096 43.8568 72.6416L44.5875 72.2168C44.9783 71.9959 45.1313 71.4691 44.8934 71.0613C44.6725 70.6705 44.1457 70.5176 43.7379 70.7555ZM26.8137 61.2908C26.4059 61.0529 25.8961 61.1889 25.6582 61.5967C25.4203 62.0045 25.5562 62.5143 25.9641 62.7521L27.3234 63.5338C27.4594 63.6187 27.5953 63.6527 27.7482 63.6527C28.0371 63.6527 28.326 63.4998 28.4789 63.2279C28.7168 62.8201 28.5809 62.3103 28.173 62.0725L26.8137 61.2908ZM21.8859 60.3732L23.2453 61.1549C23.3813 61.2398 23.5172 61.2738 23.6701 61.2738C23.959 61.2738 24.2479 61.1209 24.4008 60.849C24.6387 60.4412 24.5027 59.9314 24.0949 59.6936L22.7355 58.9119C22.3277 58.674 21.818 58.81 21.5801 59.2178C21.3422 59.6256 21.4781 60.1353 21.8859 60.3732ZM40.3904 69.1752L39.0311 68.3936C38.6232 68.1557 38.1135 68.2916 37.8756 68.6994C37.6377 69.1072 37.7736 69.617 38.1814 69.8549L39.5408 70.6365C39.6768 70.7215 39.8127 70.7555 39.9656 70.7555C40.2715 70.7555 40.5434 70.6025 40.6963 70.3307C40.9342 69.9229 40.7982 69.4131 40.3904 69.1752ZM32.2512 64.4344L30.8918 63.6527C30.484 63.4148 29.9742 63.5508 29.7363 63.9586C29.5324 64.2984 29.6004 64.7062 29.8723 64.9781L19.4051 81.7324H8.39414C8.02031 79.9822 6.45703 78.6738 4.58789 78.6738C2.42988 78.6738 0.679688 80.424 0.679688 82.582C0.679688 84.74 2.42988 86.4902 4.58789 86.4902C6.45703 86.4902 8.02031 85.1818 8.39414 83.4316H19.8809C20.1697 83.4316 20.4416 83.2787 20.5945 83.0238L31.2996 65.8617C31.2996 65.8617 31.2996 65.8447 31.3166 65.8447L31.4016 65.8957C31.5375 65.9807 31.6734 66.0146 31.8264 66.0146C32.1152 66.0146 32.4041 65.8617 32.557 65.5898C32.7949 65.182 32.659 64.6723 32.2512 64.4344ZM4.58789 84.791C3.36445 84.791 2.37891 83.8055 2.37891 82.582C2.37891 81.3586 3.36445 80.373 4.58789 80.373C5.81133 80.373 6.79688 81.3586 6.79688 82.582C6.79688 83.8055 5.81133 84.791 4.58789 84.791ZM36.3293 66.7963L34.9699 66.0146C34.5621 65.7768 34.0523 65.9127 33.8145 66.3205C33.5766 66.7283 33.7125 67.2381 34.1203 67.476L35.4797 68.2576C35.6156 68.3426 35.7516 68.3766 35.9045 68.3766C36.1934 68.3766 36.4822 68.2236 36.6352 67.9518C36.873 67.5439 36.7371 67.0342 36.3293 66.7963ZM18.0117 57.6375C18.0117 57.9434 18.1816 58.2152 18.4365 58.3682L19.1672 58.793C19.3031 58.8779 19.4391 58.9119 19.592 58.9119C19.8979 58.9119 20.1697 58.759 20.3227 58.4871C20.5605 58.0793 20.4246 57.5695 20.0168 57.3316L19.7109 57.1447V56.7879C19.7109 56.3291 19.3371 55.9383 18.8613 55.9383C18.3855 55.9383 18.0117 56.3121 18.0117 56.7879V57.6375ZM18.9293 35.6496C19.3881 35.6496 19.7789 35.2588 19.7789 34.8V33.2367C19.7789 32.7779 19.4051 32.3871 18.9293 32.3871C18.4535 32.3871 18.0797 32.7609 18.0797 33.2367V34.8C18.0797 35.2588 18.4535 35.6496 18.9293 35.6496ZM18.0287 53.6443C18.0287 54.1031 18.4025 54.4939 18.8783 54.4939C19.3371 54.4939 19.7279 54.1201 19.7279 53.6443V52.0811C19.7279 51.6223 19.3541 51.2314 18.8783 51.2314C18.4025 51.2314 18.0287 51.6053 18.0287 52.0811V53.6443ZM18.0627 39.5068C18.0627 39.9656 18.4365 40.3564 18.9123 40.3564C19.3881 40.3564 19.7619 39.9826 19.7619 39.5068V37.9436C19.7619 37.4848 19.3881 37.0939 18.9123 37.0939C18.4365 37.0939 18.0627 37.4678 18.0627 37.9436V39.5068ZM19.7449 48.9375V47.3742C19.7449 46.9154 19.3711 46.5246 18.8953 46.5246C18.4195 46.5246 18.0457 46.8984 18.0457 47.3742V48.9375C18.0457 49.3963 18.4195 49.7871 18.8953 49.7871C19.3541 49.7871 19.7279 49.3963 19.7449 48.9375ZM20.3906 28.377C20.1697 27.9861 19.643 27.8332 19.2352 28.0711L18.5045 28.4959C18.2496 28.6488 18.0797 28.9207 18.0797 29.2266V30.0762C18.0797 30.535 18.4535 30.9258 18.9293 30.9258C19.4051 30.9258 19.7789 30.552 19.7789 30.0762V29.7193L20.0848 29.5324C20.4756 29.3115 20.6285 28.7848 20.3906 28.377ZM26.4908 25.7432C26.6268 25.7432 26.7797 25.7092 26.9156 25.6242L28.275 24.8426C28.6658 24.6217 28.8188 24.0949 28.5809 23.6871C28.36 23.2963 27.8332 23.1434 27.4254 23.3813L26.066 24.1629C25.6752 24.3838 25.5223 24.9105 25.7602 25.3184C25.9131 25.5902 26.202 25.7432 26.4908 25.7432ZM22.3957 28.1051C22.5486 28.1051 22.6846 28.0541 22.8205 27.9861L24.1799 27.2045C24.5707 26.9836 24.7236 26.4568 24.4857 26.049C24.2648 25.6582 23.7381 25.5053 23.3303 25.7432L21.9709 26.5248C21.5801 26.7457 21.4271 27.2725 21.665 27.6803C21.818 27.9521 22.1068 28.1051 22.3957 28.1051ZM38.7592 18.7084C38.8951 18.7084 39.048 18.6744 39.184 18.5895L40.5434 17.8078C40.9342 17.5869 41.0871 17.0602 40.8492 16.6523C40.6283 16.2615 40.1016 16.1086 39.6938 16.3465L38.3344 17.1281C37.9436 17.349 37.7906 17.8758 38.0285 18.2836C38.1814 18.5555 38.4703 18.7084 38.7592 18.7084ZM34.6641 21.0533C34.8 21.0533 34.9529 21.0193 35.0889 20.9344L36.4482 20.1527C36.8391 19.9318 36.992 19.4051 36.7541 18.9973C36.5332 18.6064 36.0064 18.4535 35.5986 18.6914L34.2393 19.473C33.8484 19.6939 33.6955 20.2207 33.9334 20.6285C34.0863 20.9004 34.3752 21.0533 34.6641 21.0533ZM43.2791 16.2615L43.585 16.0746L43.8908 16.2615C44.0268 16.3465 44.1627 16.3805 44.3156 16.3805C44.6045 16.3805 44.8934 16.2275 45.0463 15.9557C45.2842 15.5479 45.1482 15.0381 44.7404 14.8002L44.0098 14.3754C43.7549 14.2225 43.415 14.2225 43.1602 14.3754L42.4295 14.8002C42.0387 15.0211 41.8857 15.5479 42.1236 15.9557C42.3615 16.3465 42.8713 16.4994 43.2791 16.2615ZM54.7488 22.5656L56.1082 23.3473C56.2441 23.4322 56.3801 23.4662 56.533 23.4662C56.8219 23.4662 57.1107 23.3303 57.2637 23.0414C57.4506 22.7016 57.3996 22.3107 57.1447 22.0389C57.1957 21.9879 57.2467 21.9369 57.2977 21.8689L67.7479 5.4375H78.9117C79.2686 7.1877 80.8148 8.49609 82.65 8.49609C84.757 8.49609 86.4732 6.77988 86.4732 4.67285C86.4732 2.56582 84.774 0.849609 82.667 0.849609C80.8828 0.849609 79.3705 2.07305 78.9627 3.73828H67.2891C67.0002 3.73828 66.7283 3.89121 66.5754 4.1291L55.8703 20.9514C55.8193 21.0363 55.7854 21.1043 55.7684 21.1893L55.5984 21.0873C55.1906 20.8494 54.6809 20.9854 54.443 21.3932C54.2051 21.801 54.341 22.3277 54.7488 22.5656ZM82.667 2.54883C83.8395 2.54883 84.791 3.50039 84.791 4.67285C84.791 5.84531 83.8395 6.79688 82.667 6.79688C81.4945 6.79688 80.543 5.84531 80.543 4.67285C80.543 3.50039 81.4945 2.54883 82.667 2.54883ZM46.5926 17.8418L47.952 18.6234C48.0879 18.7084 48.2238 18.7424 48.3768 18.7424C48.6826 18.7424 48.9545 18.5895 49.1074 18.3176C49.3453 17.9098 49.2094 17.4 48.8016 17.1621L47.4422 16.3805C47.0344 16.1426 46.5246 16.2785 46.2867 16.6863C46.0488 17.0941 46.1848 17.6039 46.5926 17.8418ZM60.1863 25.7262C60.3223 25.8111 60.4582 25.8451 60.6111 25.8451C60.9 25.8451 61.1889 25.6922 61.3418 25.4203C61.5797 25.0125 61.4438 24.5027 61.0359 24.2648L59.6766 23.4832C59.2688 23.2453 58.759 23.3813 58.5211 23.7891C58.2832 24.1969 58.4191 24.7066 58.827 24.9445L60.1863 25.7262ZM65.1141 26.6268L63.7547 25.8451C63.3469 25.6072 62.8371 25.7432 62.5992 26.151C62.3613 26.5588 62.4973 27.0686 62.9051 27.3064L64.2645 28.0881C64.4004 28.173 64.5363 28.207 64.6893 28.207C64.9781 28.207 65.267 28.0541 65.4199 27.7822C65.6578 27.3744 65.5219 26.8646 65.1141 26.6268ZM50.6707 20.2037L52.0301 20.9854C52.166 21.0703 52.302 21.1043 52.4549 21.1043C52.7438 21.1043 53.0326 20.9514 53.1855 20.6795C53.4234 20.2717 53.2875 19.7619 52.8797 19.524L51.5203 18.7424C51.1125 18.5045 50.6027 18.6404 50.3648 19.0482C50.127 19.4561 50.2629 19.9658 50.6707 20.2037ZM68.9883 29.3625C68.9883 29.0736 68.8184 28.7848 68.5635 28.6318L67.8328 28.207C67.425 27.9691 66.9152 28.1051 66.6773 28.5129C66.4395 28.9207 66.5754 29.4305 66.9832 29.6684L67.2891 29.8553V30.2121C67.2891 30.6709 67.6629 31.0617 68.1387 31.0617C68.5975 31.0617 68.9883 30.6879 68.9883 30.2121V29.3625ZM68.9203 52.217C68.9203 51.7582 68.5465 51.3674 68.0707 51.3674C67.5949 51.3674 67.2211 51.7412 67.2211 52.217V53.7803C67.2211 54.2391 67.5949 54.6299 68.0707 54.6299C68.5465 54.6299 68.9203 54.2391 68.9203 53.7803V52.217ZM68.1047 37.2299C67.6289 37.2299 67.2551 37.6037 67.2551 38.0795V39.6428C67.2551 40.1016 67.6289 40.4924 68.1047 40.4924C68.5805 40.4924 68.9543 40.1016 68.9543 39.6428V38.0795C68.9543 37.6207 68.5805 37.2299 68.1047 37.2299ZM68.9713 33.3557C68.9713 32.8969 68.5975 32.5061 68.1217 32.5061C67.6459 32.5061 67.2721 32.8799 67.2721 33.3557V34.9189C67.2721 35.3777 67.6459 35.7686 68.1217 35.7686C68.5975 35.7686 68.9713 35.3947 68.9713 34.9189V33.3557ZM68.9373 47.4932C68.9373 47.0344 68.5635 46.6436 68.0877 46.6436C67.6119 46.6436 67.2381 47.0174 67.2381 47.4932V49.0564C67.2381 49.5152 67.6119 49.9061 68.0877 49.9061C68.5465 49.9061 68.9373 49.5322 68.9373 49.0564V47.4932ZM62.6672 54.1371L62.7182 32.9478C62.7182 32.642 62.5652 32.3701 62.2934 32.2172L43.9758 21.5801C43.7209 21.4271 43.3811 21.4271 43.1262 21.5801L24.7576 32.1322C24.5027 32.2852 24.3328 32.557 24.3328 32.8629L24.2818 54.0522C24.2818 54.358 24.4348 54.6299 24.7066 54.7828L43.0242 65.4199C43.1602 65.5049 43.2961 65.5389 43.449 65.5389C43.602 65.5389 43.7379 65.5049 43.8738 65.4199L62.2424 54.8678C62.4973 54.7148 62.6672 54.443 62.6672 54.1371ZM60.968 53.6443L43.449 63.7037L25.9811 53.5594L26.032 33.3557L43.551 23.2963L61.0189 33.4406L60.968 53.6443Z" fill="#9C37C2"/>
<path d="M39.6937 42.9562C40.2035 42.3445 40.5264 41.5289 40.5264 40.4414C40.5264 37.5697 38.1814 36.5332 36.6182 36.5332H33.5596C33.0838 36.5332 32.71 36.907 32.71 37.3828V49.6172C32.71 50.093 33.0838 50.4668 33.5596 50.4668H38.1475C39.7107 50.4668 42.0557 49.4303 42.0557 46.5586C42.0557 44.5535 40.9172 43.449 39.6937 42.9562ZM34.4092 38.2324H36.6182C36.992 38.2324 38.8271 38.3684 38.8271 40.4414C38.8271 42.5145 36.975 42.6504 36.6182 42.6504H34.4092V38.2324ZM38.1475 48.7676H34.4092V44.3496H38.1475C38.3684 44.3496 40.3564 44.4176 40.3564 46.5586C40.3564 48.6316 38.5043 48.7676 38.1475 48.7676ZM47.3232 48.7676C46.8475 48.7676 46.4736 49.1414 46.4736 49.6172C46.4736 50.093 46.8475 50.4668 47.3232 50.4668H53.4404C53.9162 50.4668 54.29 50.093 54.29 49.6172C54.29 49.1414 53.9162 48.7676 53.4404 48.7676H51.2314V38.2324H53.4404C53.9162 38.2324 54.29 37.8586 54.29 37.3828C54.29 36.907 53.9162 36.5332 53.4404 36.5332H47.3232C46.8475 36.5332 46.4736 36.907 46.4736 37.3828C46.4736 37.8586 46.8475 38.2324 47.3232 38.2324H49.5322V48.7676H47.3232ZM82.7519 78.6738C80.8828 78.6738 79.3195 79.9822 78.9457 81.7324H67.7818L57.5865 64.7402C57.5016 64.6043 57.3996 64.5023 57.2807 64.4344C57.2807 64.2984 57.2467 64.1455 57.1787 64.0096C56.9578 63.6188 56.4311 63.4658 56.0232 63.7037L54.6639 64.4854C54.273 64.7063 54.1201 65.233 54.358 65.6408C54.5109 65.9127 54.7998 66.0656 55.0887 66.0656C55.2416 66.0656 55.3775 66.0146 55.5135 65.9467L56.1422 65.5898V65.6068L66.5924 83.0068C66.7453 83.2617 67.0172 83.4146 67.323 83.4146H78.9797C79.3705 85.1648 80.9338 86.4732 82.7859 86.4732C84.9439 86.4732 86.6941 84.723 86.6941 82.565C86.6941 80.407 84.91 78.6738 82.7519 78.6738ZM82.7519 84.791C81.5285 84.791 80.543 83.8055 80.543 82.582C80.543 81.3586 81.5285 80.373 82.7519 80.373C83.9754 80.373 84.9609 81.3586 84.9609 82.582C84.9609 83.8055 83.9754 84.791 82.7519 84.791ZM4.58789 8.49609C6.45703 8.49609 8.02031 7.1877 8.39414 5.4375H19.4051L29.8553 21.8689C29.8723 21.9029 29.9062 21.9369 29.9402 21.9709C29.7023 22.2258 29.6344 22.6336 29.8213 22.9734C29.9742 23.2453 30.2631 23.3982 30.552 23.3982C30.7049 23.3982 30.8408 23.3643 30.9768 23.2793L32.3361 22.4977C32.727 22.2768 32.8799 21.75 32.642 21.3422C32.4211 20.9514 31.8943 20.7984 31.4865 21.0363L31.3676 21.1043C31.3506 21.0533 31.3166 21.0023 31.2826 20.9514L20.5775 4.1291C20.4246 3.89121 20.1527 3.73828 19.8639 3.73828H8.39414C8.02031 1.98809 6.45703 0.679688 4.58789 0.679688C2.42988 0.679688 0.679688 2.42988 0.679688 4.58789C0.679688 6.7459 2.42988 8.49609 4.58789 8.49609ZM4.58789 2.37891C5.81133 2.37891 6.79687 3.36445 6.79687 4.58789C6.79687 5.81133 5.81133 6.79688 4.58789 6.79688C3.36445 6.79688 2.37891 5.81133 2.37891 4.58789C2.37891 3.36445 3.36445 2.37891 4.58789 2.37891ZM4.58789 47.3912C6.45703 47.3912 8.02031 46.0828 8.41113 44.3156L18.0457 44.1967V44.2137C18.0457 44.6725 18.4195 45.0633 18.8953 45.0633C19.3711 45.0633 19.7449 44.6895 19.7449 44.2137V42.6504C19.7449 42.1916 19.3711 41.8008 18.8953 41.8008C18.4705 41.8008 18.1307 42.1066 18.0627 42.4975H18.0287L8.39414 42.6164C8.00332 40.8662 6.44004 39.5748 4.58789 39.5748C2.42988 39.5748 0.679688 41.325 0.679688 43.483C0.679688 45.641 2.42988 47.3912 4.58789 47.3912ZM4.58789 41.274C5.81133 41.274 6.79687 42.2596 6.79687 43.483C6.79687 44.7064 5.81133 45.692 4.58789 45.692C3.36445 45.692 2.37891 44.7064 2.37891 43.483C2.37891 42.2596 3.36445 41.274 4.58789 41.274ZM78.8607 44.4176C79.2685 46.1338 80.8148 47.4252 82.667 47.4252C84.825 47.4252 86.5752 45.675 86.5752 43.517C86.5752 41.359 84.825 39.6088 82.667 39.6088C80.7809 39.6088 79.2176 40.9512 78.8437 42.7184H68.9543C68.9203 42.2936 68.5635 41.9367 68.1047 41.9367C67.6289 41.9367 67.2551 42.3105 67.2551 42.7863V44.3496C67.2551 44.8084 67.6289 45.1992 68.1047 45.1992C68.5465 45.1992 68.9033 44.8594 68.9373 44.4176H78.8607ZM82.667 41.308C83.8904 41.308 84.876 42.2936 84.876 43.517C84.876 44.7404 83.8904 45.726 82.667 45.726C81.4436 45.726 80.458 44.7404 80.458 43.517C80.458 42.2936 81.4436 41.308 82.667 41.308Z" fill="#9C37C2"/>
</g>
<defs>
<clipPath id="clip0_116_67">
<rect width="87" height="87" fill="white"/>
</clipPath>
</defs>
</svg>
